<svg width="19" height="5" viewBox="0 0 19 5" fill="none" xmlns="http://www.w3.org/2000/svg">
<path d="M10 3.62268C10.5523 3.62268 11 3.17497 11 2.62268C11 2.0704 10.5523 1.62268 10 1.62268C9.44772 1.62268 9 2.0704 9 2.62268C9 3.17497 9.44772 3.62268 10 3.62268Z" stroke="#1A1A1A" stroke-width="2" stroke-linecap="round" stroke-linejoin="round"/>
<path d="M17 3.62268C17.5523 3.62268 18 3.17497 18 2.62268C18 2.0704 17.5523 1.62268 17 1.62268C16.4477 1.62268 16 2.0704 16 2.62268C16 3.17497 16.4477 3.62268 17 3.62268Z" stroke="#1A1A1A" stroke-width="2" stroke-linecap="round" stroke-linejoin="round"/>
<path d="M2.68066 3.37732C3.23295 3.37732 3.68066 2.9296 3.68066 2.37732C3.68066 1.82503 3.23295 1.37732 2.68066 1.37732C2.12838 1.37732 1.68066 1.82503 1.68066 2.37732C1.68066 2.9296 2.12838 3.37732 2.68066 3.37732Z" stroke="#1A1A1A" stroke-width="2" stroke-linecap="round" stroke-linejoin="round"/>
</svg>
